<svg xmlns="http://www.w3.org/2000/svg" viewBox="0 0 240 240" role="img" aria-label="Erkek personel avatarı">
  <defs>
    <linearGradient id="bg" x1="0" y1="0" x2="1" y2="1">
      <stop offset="0" stop-color="#E4EBF3"/><stop offset="1" stop-color="#CBD8E6"/>
    </linearGradient>
  </defs>
  <circle cx="120" cy="120" r="120" fill="url(#bg)"/>
  <circle cx="120" cy="94" r="41" fill="#5C3A21"/>
  <rect x="82" y="98" width="9" height="16" rx="4" fill="#5C3A21"/>
  <rect x="149" y="98" width="9" height="16" rx="4" fill="#5C3A21"/>
  <path d="M108 124 h24 v26 c0 8 -5 13 -12 13 s-12 -5 -12 -13 z" fill="#E0A97E"/>
  <path d="M46 240 v-28 c0-40 34-64 56-68 l36 0 c22 4 56 28 56 68 v28 z" fill="#16456F"/>
  <path d="M106 146 l14 14 14-14 5 7 -19 18 -19-18 z" fill="#0F2E4E"/>
  <rect x="117" y="160" width="6" height="22" rx="3" fill="#0F2E4E"/>
  <circle cx="120" cy="168" r="1.8" fill="#CBD8E6"/>
  <circle cx="120" cy="176" r="1.8" fill="#CBD8E6"/>
  <circle cx="81" cy="106" r="7" fill="#F2C29B"/>
  <circle cx="159" cy="106" r="7" fill="#F2C29B"/>
  <circle cx="120" cy="104" r="38" fill="#F2C29B"/>
  <path d="M98 90 h13 M129 90 h13" stroke="#5C3A21" stroke-width="3" stroke-linecap="round"/>
  <circle cx="105" cy="101" r="3.2" fill="#26323F"/>
  <circle cx="135" cy="101" r="3.2" fill="#26323F"/>
  <path d="M110 120 q10 8 20 0" fill="none" stroke="#26323F" stroke-width="3" stroke-linecap="round"/>
</svg>
